<svg xmlns="http://www.w3.org/2000/svg" viewBox="0 0 32 32" width="32" height="32">
  <defs>
    <linearGradient id="orange-grad" x1="0%" y1="0%" x2="100%" y2="100%">
      <stop offset="0%" stop-color="#f97316" />
      <stop offset="100%" stop-color="#ea580c" />
    </linearGradient>
  </defs>
  <rect width="32" height="32" rx="8" fill="url(#orange-grad)" />
  <path d="M9 7h14a2 2 0 0 1 2 2v14a2 2 0 0 1-2 2H9a2 2 0 0 1-2-2V9a2 2 0 0 1 2-2zm0 2v2h2V9H9zm0 4v2h2v-2H9zm0 4v2h2v-2H9zm0 4v2h2v-2H9zm12-12v2h2V9h-2zm0 4v2h2v-2h-2zm0 4v2h2v-2h-2zm0 4v2h2v-2h-2z" fill="#ffffff" />
</svg>